<?xml version="1.0" encoding="UTF-8" standalone="no"?>
<!-- Created with Inkscape (http://www.inkscape.org/) -->

<svg
   width="400mm"
   height="400mm"
   viewBox="0 0 400 400"
   version="1.1"
   id="svg1"
   inkscape:version="1.4 (86a8ad7, 2024-10-11)"
   sodipodi:docname="blog-time.svg"
   xmlns:inkscape="http://www.inkscape.org/namespaces/inkscape"
   xmlns:sodipodi="http://sodipodi.sourceforge.net/DTD/sodipodi-0.dtd"
   xmlns:xlink="http://www.w3.org/1999/xlink"
   xmlns="http://www.w3.org/2000/svg"
   xmlns:svg="http://www.w3.org/2000/svg">
  <sodipodi:namedview
     id="namedview1"
     pagecolor="#ffffff"
     bordercolor="#000000"
     borderopacity="0.25"
     inkscape:showpageshadow="2"
     inkscape:pageopacity="0.0"
     inkscape:pagecheckerboard="0"
     inkscape:deskcolor="#d1d1d1"
     inkscape:document-units="mm"
     inkscape:zoom="0.19165565"
     inkscape:cx="-1064.409"
     inkscape:cy="1625.3108"
     inkscape:window-width="2560"
     inkscape:window-height="1494"
     inkscape:window-x="-11"
     inkscape:window-y="61"
     inkscape:window-maximized="1"
     inkscape:current-layer="layer1" />
  <defs
     id="defs1">
    <linearGradient
       id="linearGradient17"
       inkscape:collect="always">
      <stop
         style="stop-color:#282828;stop-opacity:0.32093024;"
         offset="0"
         id="stop17" />
      <stop
         style="stop-color:#282828;stop-opacity:0;"
         offset="1"
         id="stop18" />
    </linearGradient>
    <linearGradient
       id="linearGradient12"
       inkscape:collect="always">
      <stop
         style="stop-color:#f6f6f6;stop-opacity:1;"
         offset="0"
         id="stop13" />
      <stop
         style="stop-color:#d5d5d5;stop-opacity:1;"
         offset="1"
         id="stop14" />
    </linearGradient>
    <linearGradient
       id="linearGradient9"
       inkscape:collect="always">
      <stop
         style="stop-color:#f40000;stop-opacity:1;"
         offset="0"
         id="stop9" />
      <stop
         style="stop-color:#f76e6e;stop-opacity:1;"
         offset="0.22041763"
         id="stop12" />
      <stop
         style="stop-color:#f95757;stop-opacity:1;"
         offset="0.77494198"
         id="stop11" />
      <stop
         style="stop-color:#950000;stop-opacity:1;"
         offset="1"
         id="stop10" />
    </linearGradient>
    <linearGradient
       id="linearGradient6"
       inkscape:collect="always">
      <stop
         style="stop-color:#fafab3;stop-opacity:1;"
         offset="0"
         id="stop6" />
      <stop
         style="stop-color:#ead300;stop-opacity:1;"
         offset="1"
         id="stop7" />
    </linearGradient>
    <linearGradient
       id="linearGradient4"
       inkscape:collect="always">
      <stop
         style="stop-color:#f7f8a6;stop-opacity:1;"
         offset="0"
         id="stop4" />
      <stop
         style="stop-color:#ecd90f;stop-opacity:0.98604649;"
         offset="1"
         id="stop5" />
    </linearGradient>
    <linearGradient
       id="linearGradient2"
       inkscape:collect="always">
      <stop
         style="stop-color:#eaeaea;stop-opacity:1;"
         offset="0.27030161"
         id="stop2" />
      <stop
         style="stop-color:#c6c6c6;stop-opacity:1;"
         offset="1"
         id="stop3" />
    </linearGradient>
    <linearGradient
       inkscape:collect="always"
       xlink:href="#linearGradient2"
       id="linearGradient3"
       x1="108.63348"
       y1="93.240364"
       x2="227.65762"
       y2="307.96561"
       gradientUnits="userSpaceOnUse" />
    <linearGradient
       inkscape:collect="always"
       xlink:href="#linearGradient4"
       id="linearGradient5"
       x1="70.637199"
       y1="49.863899"
       x2="81.800674"
       y2="61.835266"
       gradientUnits="userSpaceOnUse" />
    <linearGradient
       inkscape:collect="always"
       xlink:href="#linearGradient6"
       id="linearGradient7"
       x1="256.73193"
       y1="54.03503"
       x2="271.18463"
       y2="61.719669"
       gradientUnits="userSpaceOnUse" />
    <linearGradient
       inkscape:collect="always"
       xlink:href="#linearGradient9"
       id="linearGradient10"
       x1="283.45706"
       y1="254.83392"
       x2="289.55521"
       y2="429.46198"
       gradientUnits="userSpaceOnUse" />
    <linearGradient
       inkscape:collect="always"
       xlink:href="#linearGradient12"
       id="linearGradient14"
       x1="244.59433"
       y1="277.83389"
       x2="329.39423"
       y2="408.41428"
       gradientUnits="userSpaceOnUse" />
    <radialGradient
       inkscape:collect="always"
       xlink:href="#linearGradient17"
       id="radialGradient18"
       cx="68.331963"
       cy="72.724731"
       fx="68.331963"
       fy="72.724731"
       r="138.61626"
       gradientUnits="userSpaceOnUse"
       gradientTransform="matrix(1.5070423,0,0,1.5070423,87.374169,86.611105)" />
  </defs>
  <g
     inkscape:label="图层 1"
     inkscape:groupmode="layer"
     id="layer1">
    <circle
       style="fill:#cdcdcd;fill-opacity:0.444444;stroke-width:3;stroke-linecap:round;stroke-linejoin:round;stroke-miterlimit:10.7;paint-order:markers fill stroke"
       id="path1"
       cx="-127.8784"
       cy="300.17252"
       r="104.45029" />
    <g
       id="g18"
       transform="matrix(0.83766202,0,0,0.83766202,50.228774,25.550181)">
      <circle
         style="fill:url(#radialGradient18);stroke-width:4.52113;stroke-linecap:round;stroke-linejoin:round;stroke-miterlimit:10.7;paint-order:markers fill stroke"
         id="path17"
         cx="190.35333"
         cy="196.21036"
         r="208.90056" />
      <path
         id="rect1"
         style="fill:url(#linearGradient3);fill-opacity:0.444444;stroke-width:3;stroke-linecap:round;stroke-linejoin:round;stroke-miterlimit:10.7;paint-order:markers fill stroke"
         d="M 45.392061,53.689229 V 347.51677 H 188.61019 a 97.617096,97.617096 0 0 1 -0.20929,-2.9285 97.617096,97.617096 0 0 1 97.6173,-97.61678 97.617096,97.617096 0 0 1 4.88084,0.12402 V 53.689229 h -18.42678 v 7.452775 a 13.300328,13.300328 0 0 1 5.63014,10.850501 13.300328,13.300328 0 0 1 -13.29996,13.299963 13.300328,13.300328 0 0 1 -13.30048,-13.299963 13.300328,13.300328 0 0 1 4.74958,-9.975619 V 53.689229 H 84.599487 v 7.776787 a 13.300328,13.300328 0 0 1 5.208468,10.526489 13.300328,13.300328 0 0 1 -13.30048,13.30048 13.300328,13.300328 0 0 1 -13.30048,-13.30048 13.300328,13.300328 0 0 1 5.171777,-10.257772 v -8.045504 z" />
      <path
         id="rect3-6"
         style="fill:url(#linearGradient7);fill-opacity:0.444444;stroke-width:2.61076;stroke-linecap:round;stroke-linejoin:round;stroke-miterlimit:10.7;paint-order:markers fill stroke"
         d="m 263.99559,36.348773 c -3.91024,0 -7.05784,3.881698 -7.05784,8.702902 v 21.490126 c 0,0.157954 0.0122,0.311873 0.0189,0.467705 a 8.1845186,8.1845186 0 0 0 -1.18276,4.21159 8.1845186,8.1845186 0 0 0 8.18439,8.18483 8.1845186,8.1845186 0 0 0 8.18438,-8.18483 8.1845186,8.1845186 0 0 0 -1.1117,-4.1149 c 0.01,-0.187486 0.023,-0.373789 0.023,-0.564395 V 45.051675 c 0,-4.821204 -3.14805,-8.702902 -7.05829,-8.702902 z" />
      <path
         id="rect3-6-8"
         style="fill:url(#linearGradient5);fill-opacity:0.444444;stroke-width:2.61076;stroke-linecap:round;stroke-linejoin:round;stroke-miterlimit:10.7;paint-order:markers fill stroke"
         d="m 76.256252,34.321005 c -3.91024,0 -7.05784,3.881698 -7.05784,8.702902 v 21.490126 c 0,0.157954 0.0122,0.311873 0.0189,0.467705 a 8.1845186,8.1845186 0 0 0 -1.18276,4.21159 8.1845186,8.1845186 0 0 0 8.18439,8.18483 8.1845186,8.1845186 0 0 0 8.18438,-8.18483 8.1845186,8.1845186 0 0 0 -1.1117,-4.1149 c 0.01,-0.187486 0.023,-0.373789 0.023,-0.564395 V 43.023907 c 0,-4.821204 -3.14805,-8.702902 -7.05829,-8.702902 z" />
      <path
         id="rect7"
         style="fill:#000000;fill-opacity:1;stroke-width:3;stroke-linecap:round;stroke-linejoin:round;stroke-miterlimit:10.7;paint-order:markers fill stroke"
         d="m 60.439205,94.688794 v 76.985486 h -0.03307 v 3.90467 h 0.03307 v 52.84483 H 276.82755 v -82.52623 h 0.0295 v -3.90467 h -0.0295 V 94.688794 Z m 5.265312,3.515031 H 86.635022 V 115.18832 H 65.704517 Z m 25.567431,0 H 117.5737 V 115.18832 H 91.271948 Z m 30.938682,0 h 26.60458 v 16.984495 h -26.60458 z m 31.2415,0 h 30.5661 v 16.984495 h -30.5661 z m 35.20302,0 h 24.15667 v 16.984495 h -24.15667 z m 28.79359,0 h 27.06967 v 16.984495 h -27.06967 z m 31.70659,0 h 21.7687 v 16.984495 h -21.7687 z M 65.704517,119.09299 h 20.930505 v 22.89989 H 65.704517 Z m 25.567431,0 H 117.5737 v 22.89989 H 91.271948 Z m 30.938682,0 h 26.60458 v 22.89989 h -26.60458 z m 31.2415,0 h 30.5661 v 22.89989 h -30.5661 z m 35.20302,0 h 24.15667 v 22.89989 h -24.15667 z m 28.79359,0 h 27.06967 v 22.89989 h -27.06967 z m 31.70659,0 h 21.7687 v 22.89989 h -21.7687 z M 65.704517,145.89755 h 20.930505 v 25.77673 H 65.704517 Z m 25.567431,0 H 117.5737 v 25.77673 H 91.271948 Z m 30.938682,0 h 26.60458 v 25.77673 h -26.60458 z m 31.2415,0 h 30.5661 v 25.77673 h -30.5661 z m 35.20302,0 h 24.15667 v 25.77673 h -24.15667 z m 28.79359,0 h 27.06967 v 25.77673 h -27.06967 z m 31.70659,0 h 21.7687 v 25.77673 h -21.7687 z M 65.704517,175.57895 H 86.635022 V 201.89 H 65.704517 Z m 25.567431,0 H 117.5737 V 201.89 H 91.271948 Z m 30.938682,0 h 26.60458 V 201.89 h -26.60458 z m 31.2415,0 h 30.5661 V 201.89 h -30.5661 z m 35.20302,0 h 24.15667 V 201.89 h -24.15667 z m 28.79359,0 h 27.06967 V 201.89 h -27.06967 z m 31.70659,0 h 21.7687 V 201.89 h -21.7687 z M 65.704517,205.79467 h 20.930505 v 19.24224 H 65.704517 Z m 25.567431,0 H 117.5737 v 19.24224 H 91.271948 Z m 30.938682,0 h 26.60458 v 19.24224 h -26.60458 z m 31.2415,0 h 30.5661 v 19.24224 h -30.5661 z m 35.20302,0 h 24.15667 v 19.24224 h -24.15667 z m 28.79359,0 h 27.06967 v 19.24224 h -27.06967 z m 31.70659,0 h 21.7687 v 19.24224 h -21.7687 z" />
      <circle
         style="fill:url(#linearGradient10);fill-opacity:1;stroke-width:3;stroke-linecap:round;stroke-linejoin:round;stroke-miterlimit:10.7;paint-order:markers fill stroke"
         id="path9"
         cx="286.50616"
         cy="342.14792"
         r="87.367294" />
      <circle
         style="fill:url(#linearGradient14);fill-opacity:1;stroke-width:3.24407;stroke-linecap:round;stroke-linejoin:round;stroke-miterlimit:10.7;paint-order:markers fill stroke"
         id="path12"
         cx="286.99426"
         cy="343.12408"
         r="77.849625" />
      <circle
         style="fill:#8a8a8a;fill-opacity:1;stroke-width:3;stroke-linecap:round;stroke-linejoin:round;stroke-miterlimit:10.7;paint-order:markers fill stroke"
         id="path14"
         cx="288.52747"
         cy="275.4126"
         r="6.7300062" />
      <circle
         style="fill:#8a8a8a;fill-opacity:1;stroke-width:3;stroke-linecap:round;stroke-linejoin:round;stroke-miterlimit:10.7;paint-order:markers fill stroke"
         id="path14-1"
         cx="288.72968"
         cy="409.90518"
         r="6.7300062" />
      <circle
         style="fill:#8a8a8a;fill-opacity:1;stroke-width:3;stroke-linecap:round;stroke-linejoin:round;stroke-miterlimit:10.7;paint-order:markers fill stroke"
         id="path14-0"
         cx="219.46281"
         cy="345.30328"
         r="6.7300062" />
      <circle
         style="fill:#8a8a8a;fill-opacity:1;stroke-width:2.07692;stroke-linecap:round;stroke-linejoin:round;stroke-miterlimit:10.7;paint-order:markers fill stroke"
         id="path14-0-1"
         cx="241.2206"
         cy="383.31445"
         r="4.659235" />
      <circle
         style="fill:#8a8a8a;fill-opacity:1;stroke-width:2.07692;stroke-linecap:round;stroke-linejoin:round;stroke-miterlimit:10.7;paint-order:markers fill stroke"
         id="path14-0-1-0"
         cx="330.66443"
         cy="295.50015"
         r="4.659235" />
      <circle
         style="fill:#8a8a8a;fill-opacity:1;stroke-width:2.07692;stroke-linecap:round;stroke-linejoin:round;stroke-miterlimit:10.7;paint-order:markers fill stroke"
         id="path14-0-1-6"
         cx="332.77722"
         cy="382.87799"
         r="4.659235" />
      <circle
         style="fill:#8a8a8a;fill-opacity:1;stroke-width:2.07692;stroke-linecap:round;stroke-linejoin:round;stroke-miterlimit:10.7;paint-order:markers fill stroke"
         id="path14-0-1-7"
         cx="242.21837"
         cy="298.78"
         r="4.659235" />
      <circle
         style="fill:#8a8a8a;fill-opacity:1;stroke-width:3;stroke-linecap:round;stroke-linejoin:round;stroke-miterlimit:10.7;paint-order:markers fill stroke"
         id="path14-7"
         cx="355.44073"
         cy="342.56589"
         r="6.7300062" />
      <rect
         style="fill:#282828;fill-opacity:1;stroke-width:2.88716;stroke-linecap:round;stroke-linejoin:round;stroke-miterlimit:10.7;paint-order:markers fill stroke"
         id="rect14"
         width="4.3141065"
         height="67.127502"
         x="286.62924"
         y="294.5672" />
      <rect
         style="fill:#282828;fill-opacity:1;stroke-width:2.07521;stroke-linecap:round;stroke-linejoin:round;stroke-miterlimit:10.7;paint-order:markers fill stroke"
         id="rect14-3"
         width="2.9818015"
         height="50.175579"
         x="58.169865"
         y="-491.92917"
         transform="matrix(-0.71722848,0.69683808,-0.73667986,-0.67624166,0,0)" />
      <rect
         style="fill:#282828;fill-opacity:1;stroke-width:2.58408;stroke-linecap:round;stroke-linejoin:round;stroke-miterlimit:10.7;paint-order:markers fill stroke"
         id="rect14-3-9"
         width="3.5189383"
         height="65.924614"
         x="-457.07867"
         y="-138.54973"
         transform="matrix(-0.77160041,-0.63610754,0.7417754,-0.67064838,0,0)" />
    </g>
  </g>
</svg>
